<mxfile host="app.diagrams.net" modified="2021-08-10T07:54:58.269Z" agent="5.0 (Windows NT 10.0; Win64; x64) AppleWebKit/537.36 (KHTML, like Gecko) Chrome/92.0.4515.131 Safari/537.36 Edg/92.0.902.67" etag="musaLfloO21uCfsuKcts" version="14.9.5" type="github">
  <diagram id="ykn3pRT4Al43Ke0HlfmU" name="Page-1">
    <mxGraphModel dx="1422" dy="762" grid="1" gridSize="10" guides="1" tooltips="1" connect="1" arrows="1" fold="1" page="1" pageScale="1" pageWidth="827" pageHeight="1169" math="0" shadow="0">
      <root>
        <mxCell id="0" />
        <mxCell id="1" parent="0" />
        <mxCell id="0ZsHzPWVQzTtnvAwvFvp-14" style="edgeStyle=orthogonalEdgeStyle;rounded=0;orthogonalLoop=1;jettySize=auto;html=1;exitX=0;exitY=0;exitDx=120;exitDy=50;exitPerimeter=0;entryX=0.5;entryY=0;entryDx=0;entryDy=0;" edge="1" parent="1" source="0ZsHzPWVQzTtnvAwvFvp-7" target="0ZsHzPWVQzTtnvAwvFvp-12">
          <mxGeometry relative="1" as="geometry" />
        </mxCell>
        <mxCell id="0ZsHzPWVQzTtnvAwvFvp-7" value="15*15*256" style="shape=cube;whiteSpace=wrap;html=1;boundedLbl=1;backgroundOutline=1;darkOpacity=0.05;darkOpacity2=0.1;direction=east;fillColor=#e1d5e7;strokeColor=#9673a6;fontSize=14;" vertex="1" parent="1">
          <mxGeometry x="390" y="170" width="110" height="80" as="geometry" />
        </mxCell>
        <mxCell id="0ZsHzPWVQzTtnvAwvFvp-15" style="edgeStyle=orthogonalEdgeStyle;rounded=0;orthogonalLoop=1;jettySize=auto;html=1;exitX=0;exitY=0;exitDx=120;exitDy=50;exitPerimeter=0;entryX=0.5;entryY=1;entryDx=0;entryDy=0;" edge="1" parent="1" source="0ZsHzPWVQzTtnvAwvFvp-8" target="0ZsHzPWVQzTtnvAwvFvp-12">
          <mxGeometry relative="1" as="geometry" />
        </mxCell>
        <mxCell id="0ZsHzPWVQzTtnvAwvFvp-8" value="31*31*256" style="shape=cube;whiteSpace=wrap;html=1;boundedLbl=1;backgroundOutline=1;darkOpacity=0.05;darkOpacity2=0.1;direction=east;fillColor=#e1d5e7;strokeColor=#9673a6;fontSize=14;" vertex="1" parent="1">
          <mxGeometry x="390" y="290" width="110" height="80" as="geometry" />
        </mxCell>
        <mxCell id="0ZsHzPWVQzTtnvAwvFvp-34" style="edgeStyle=orthogonalEdgeStyle;rounded=0;orthogonalLoop=1;jettySize=auto;html=1;entryX=0;entryY=0.5;entryDx=0;entryDy=0;fontSize=16;" edge="1" parent="1" source="0ZsHzPWVQzTtnvAwvFvp-9" target="0ZsHzPWVQzTtnvAwvFvp-27">
          <mxGeometry relative="1" as="geometry" />
        </mxCell>
        <mxCell id="0ZsHzPWVQzTtnvAwvFvp-37" style="edgeStyle=orthogonalEdgeStyle;rounded=0;orthogonalLoop=1;jettySize=auto;html=1;entryX=0;entryY=0.5;entryDx=0;entryDy=0;fontSize=16;" edge="1" parent="1" source="0ZsHzPWVQzTtnvAwvFvp-9" target="0ZsHzPWVQzTtnvAwvFvp-26">
          <mxGeometry relative="1" as="geometry" />
        </mxCell>
        <mxCell id="0ZsHzPWVQzTtnvAwvFvp-39" style="edgeStyle=orthogonalEdgeStyle;rounded=0;orthogonalLoop=1;jettySize=auto;html=1;entryX=0;entryY=0.5;entryDx=0;entryDy=0;fontSize=16;" edge="1" parent="1" source="0ZsHzPWVQzTtnvAwvFvp-9" target="0ZsHzPWVQzTtnvAwvFvp-28">
          <mxGeometry relative="1" as="geometry" />
        </mxCell>
        <mxCell id="0ZsHzPWVQzTtnvAwvFvp-9" value="&lt;font style=&quot;font-size: 14px&quot;&gt;17*17*256&lt;/font&gt;" style="shape=cube;whiteSpace=wrap;html=1;boundedLbl=1;backgroundOutline=1;darkOpacity=0.05;darkOpacity2=0.1;direction=east;align=center;verticalAlign=top;fillColor=#e1d5e7;strokeColor=#9673a6;" vertex="1" parent="1">
          <mxGeometry x="610" y="240" width="110" height="90" as="geometry" />
        </mxCell>
        <mxCell id="0ZsHzPWVQzTtnvAwvFvp-10" value="" style="shape=cube;whiteSpace=wrap;html=1;boundedLbl=1;backgroundOutline=1;darkOpacity=0.05;darkOpacity2=0.1;verticalAlign=top;fillColor=#1ba1e2;strokeColor=#006EAF;fontColor=#ffffff;" vertex="1" parent="1">
          <mxGeometry x="680" y="290" width="30" height="30" as="geometry" />
        </mxCell>
        <mxCell id="0ZsHzPWVQzTtnvAwvFvp-16" style="edgeStyle=orthogonalEdgeStyle;rounded=0;orthogonalLoop=1;jettySize=auto;html=1;exitX=1;exitY=0.5;exitDx=0;exitDy=0;" edge="1" parent="1" source="0ZsHzPWVQzTtnvAwvFvp-12" target="0ZsHzPWVQzTtnvAwvFvp-9">
          <mxGeometry relative="1" as="geometry" />
        </mxCell>
        <mxCell id="0ZsHzPWVQzTtnvAwvFvp-12" value="*d" style="rounded=0;whiteSpace=wrap;html=1;fontSize=16;fillColor=#f5f5f5;strokeColor=#666666;fontColor=#333333;" vertex="1" parent="1">
          <mxGeometry x="530" y="267.5" width="30" height="35" as="geometry" />
        </mxCell>
        <mxCell id="0ZsHzPWVQzTtnvAwvFvp-17" value="RoW:1*1*256" style="rounded=0;whiteSpace=wrap;html=1;verticalAlign=top;fillColor=#f5f5f5;strokeColor=#666666;fontColor=#333333;" vertex="1" parent="1">
          <mxGeometry x="660" y="360" width="90" height="30" as="geometry" />
        </mxCell>
        <mxCell id="0ZsHzPWVQzTtnvAwvFvp-18" value="" style="endArrow=classic;html=1;entryX=0.5;entryY=0;entryDx=0;entryDy=0;exitX=0;exitY=0;exitDx=25;exitDy=30;exitPerimeter=0;" edge="1" parent="1" source="0ZsHzPWVQzTtnvAwvFvp-10" target="0ZsHzPWVQzTtnvAwvFvp-17">
          <mxGeometry width="50" height="50" relative="1" as="geometry">
            <mxPoint x="685" y="320" as="sourcePoint" />
            <mxPoint x="735" y="270" as="targetPoint" />
          </mxGeometry>
        </mxCell>
        <mxCell id="0ZsHzPWVQzTtnvAwvFvp-33" style="edgeStyle=orthogonalEdgeStyle;rounded=0;orthogonalLoop=1;jettySize=auto;html=1;exitX=1;exitY=0.5;exitDx=0;exitDy=0;fontSize=16;" edge="1" parent="1" source="0ZsHzPWVQzTtnvAwvFvp-19" target="0ZsHzPWVQzTtnvAwvFvp-7">
          <mxGeometry relative="1" as="geometry" />
        </mxCell>
        <mxCell id="0ZsHzPWVQzTtnvAwvFvp-19" value="&lt;p class=&quot;MsoNormal&quot; style=&quot;font-size: 18px;&quot;&gt;&lt;span lang=&quot;EN-US&quot; style=&quot;font-size: 18px;&quot;&gt;f&lt;/span&gt;&lt;sub style=&quot;font-size: 18px;&quot;&gt;&lt;span lang=&quot;EN-US&quot; style=&quot;font-family: &amp;quot;times new roman&amp;quot;, serif; font-size: 18px;&quot;&gt;θ&lt;/span&gt;&lt;/sub&gt;&lt;span lang=&quot;EN-US&quot; style=&quot;font-size: 18px;&quot;&gt;&lt;/span&gt;&lt;/p&gt;" style="rounded=0;whiteSpace=wrap;html=1;fontSize=18;verticalAlign=middle;fillColor=#d5e8d4;strokeColor=#82b366;" vertex="1" parent="1">
          <mxGeometry x="280" y="195" width="30" height="30" as="geometry" />
        </mxCell>
        <mxCell id="0ZsHzPWVQzTtnvAwvFvp-36" style="edgeStyle=orthogonalEdgeStyle;rounded=0;orthogonalLoop=1;jettySize=auto;html=1;exitX=1;exitY=0.5;exitDx=0;exitDy=0;fontSize=16;" edge="1" parent="1" source="0ZsHzPWVQzTtnvAwvFvp-25" target="0ZsHzPWVQzTtnvAwvFvp-8">
          <mxGeometry relative="1" as="geometry" />
        </mxCell>
        <mxCell id="0ZsHzPWVQzTtnvAwvFvp-25" value="&lt;p class=&quot;MsoNormal&quot; style=&quot;font-size: 18px;&quot;&gt;&lt;span lang=&quot;EN-US&quot; style=&quot;font-size: 18px;&quot;&gt;f&lt;/span&gt;&lt;sub style=&quot;font-size: 18px;&quot;&gt;&lt;span lang=&quot;EN-US&quot; style=&quot;font-family: &amp;quot;times new roman&amp;quot;, serif; font-size: 18px;&quot;&gt;θ&lt;/span&gt;&lt;/sub&gt;&lt;span lang=&quot;EN-US&quot; style=&quot;font-size: 18px;&quot;&gt;&lt;/span&gt;&lt;/p&gt;" style="rounded=0;whiteSpace=wrap;html=1;fontSize=18;verticalAlign=middle;fillColor=#d5e8d4;strokeColor=#82b366;" vertex="1" parent="1">
          <mxGeometry x="280" y="316.25" width="30" height="27.5" as="geometry" />
        </mxCell>
        <mxCell id="0ZsHzPWVQzTtnvAwvFvp-48" style="edgeStyle=orthogonalEdgeStyle;rounded=0;orthogonalLoop=1;jettySize=auto;html=1;fontSize=18;" edge="1" parent="1" source="0ZsHzPWVQzTtnvAwvFvp-26" target="0ZsHzPWVQzTtnvAwvFvp-40">
          <mxGeometry relative="1" as="geometry" />
        </mxCell>
        <mxCell id="0ZsHzPWVQzTtnvAwvFvp-26" value="&lt;p class=&quot;MsoNormal&quot;&gt;&lt;span lang=&quot;EN-US&quot; style=&quot;font-family: &amp;#34;times new roman&amp;#34; , serif&quot;&gt;h&lt;sub&gt;ϕ&lt;/sub&gt;&lt;/span&gt;&lt;span lang=&quot;EN-US&quot;&gt;&lt;/span&gt;&lt;/p&gt;" style="rounded=0;whiteSpace=wrap;html=1;fontSize=18;verticalAlign=middle;fillColor=#d5e8d4;strokeColor=#82b366;" vertex="1" parent="1">
          <mxGeometry x="790" y="150" width="30" height="30" as="geometry" />
        </mxCell>
        <mxCell id="0ZsHzPWVQzTtnvAwvFvp-46" style="edgeStyle=orthogonalEdgeStyle;rounded=0;orthogonalLoop=1;jettySize=auto;html=1;entryX=0;entryY=0.5;entryDx=0;entryDy=0;entryPerimeter=0;fontSize=18;" edge="1" parent="1" source="0ZsHzPWVQzTtnvAwvFvp-27" target="0ZsHzPWVQzTtnvAwvFvp-41">
          <mxGeometry relative="1" as="geometry" />
        </mxCell>
        <mxCell id="0ZsHzPWVQzTtnvAwvFvp-27" value="&lt;span lang=&quot;EN-US&quot; style=&quot;font-size: 18px; font-family: &amp;quot;times new roman&amp;quot;, serif;&quot;&gt;b&lt;sub style=&quot;font-size: 18px;&quot;&gt;σ&lt;/sub&gt;&lt;/span&gt;" style="rounded=0;whiteSpace=wrap;html=1;fontSize=18;verticalAlign=middle;fillColor=#d5e8d4;strokeColor=#82b366;" vertex="1" parent="1">
          <mxGeometry x="790" y="270" width="30" height="30" as="geometry" />
        </mxCell>
        <mxCell id="0ZsHzPWVQzTtnvAwvFvp-47" style="edgeStyle=orthogonalEdgeStyle;rounded=0;orthogonalLoop=1;jettySize=auto;html=1;fontSize=18;" edge="1" parent="1" source="0ZsHzPWVQzTtnvAwvFvp-28" target="0ZsHzPWVQzTtnvAwvFvp-42">
          <mxGeometry relative="1" as="geometry" />
        </mxCell>
        <mxCell id="0ZsHzPWVQzTtnvAwvFvp-28" value="&lt;span lang=&quot;EN-US&quot; style=&quot;font-size: 18px; font-family: &amp;quot;times new roman&amp;quot;, serif;&quot;&gt;s&lt;sub style=&quot;font-size: 18px;&quot;&gt;φ&lt;/sub&gt;&lt;/span&gt;" style="rounded=0;whiteSpace=wrap;html=1;fontSize=18;verticalAlign=middle;fillColor=#d5e8d4;strokeColor=#82b366;" vertex="1" parent="1">
          <mxGeometry x="790" y="390" width="30" height="30" as="geometry" />
        </mxCell>
        <mxCell id="0ZsHzPWVQzTtnvAwvFvp-40" value="17*17(63*63)" style="shape=cube;whiteSpace=wrap;html=1;boundedLbl=1;backgroundOutline=1;darkOpacity=0.05;darkOpacity2=0.1;direction=east;fillColor=#e1d5e7;strokeColor=#9673a6;fontSize=14;verticalAlign=top;" vertex="1" parent="1">
          <mxGeometry x="870" y="125" width="110" height="80" as="geometry" />
        </mxCell>
        <mxCell id="0ZsHzPWVQzTtnvAwvFvp-41" value="17*17*4k" style="shape=cube;whiteSpace=wrap;html=1;boundedLbl=1;backgroundOutline=1;darkOpacity=0.05;darkOpacity2=0.1;direction=east;fillColor=#e1d5e7;strokeColor=#9673a6;fontSize=14;" vertex="1" parent="1">
          <mxGeometry x="870" y="245" width="110" height="80" as="geometry" />
        </mxCell>
        <mxCell id="0ZsHzPWVQzTtnvAwvFvp-42" value="17*17*2k" style="shape=cube;whiteSpace=wrap;html=1;boundedLbl=1;backgroundOutline=1;darkOpacity=0.05;darkOpacity2=0.1;direction=east;fillColor=#e1d5e7;strokeColor=#9673a6;fontSize=14;" vertex="1" parent="1">
          <mxGeometry x="870" y="365" width="110" height="80" as="geometry" />
        </mxCell>
        <mxCell id="0ZsHzPWVQzTtnvAwvFvp-43" value="box" style="text;html=1;strokeColor=none;fillColor=none;align=center;verticalAlign=middle;whiteSpace=wrap;rounded=0;fontSize=18;" vertex="1" parent="1">
          <mxGeometry x="997" y="290" width="40" height="20" as="geometry" />
        </mxCell>
        <mxCell id="0ZsHzPWVQzTtnvAwvFvp-44" value="score" style="text;html=1;strokeColor=none;fillColor=none;align=center;verticalAlign=middle;whiteSpace=wrap;rounded=0;fontSize=18;" vertex="1" parent="1">
          <mxGeometry x="997" y="400" width="40" height="20" as="geometry" />
        </mxCell>
        <mxCell id="0ZsHzPWVQzTtnvAwvFvp-49" value="" style="shape=cube;whiteSpace=wrap;html=1;boundedLbl=1;backgroundOutline=1;darkOpacity=0.05;darkOpacity2=0.1;verticalAlign=top;fillColor=#1ba1e2;strokeColor=#006EAF;fontSize=13;fontColor=#ffffff;" vertex="1" parent="1">
          <mxGeometry x="940" y="170" width="30" height="30" as="geometry" />
        </mxCell>
        <mxCell id="0ZsHzPWVQzTtnvAwvFvp-50" value="" style="endArrow=none;dashed=1;html=1;fontSize=18;entryX=0;entryY=0;entryDx=0;entryDy=0;" edge="1" parent="1" target="0ZsHzPWVQzTtnvAwvFvp-57">
          <mxGeometry width="50" height="50" relative="1" as="geometry">
            <mxPoint x="950" y="170" as="sourcePoint" />
            <mxPoint x="1010" y="160" as="targetPoint" />
          </mxGeometry>
        </mxCell>
        <mxCell id="0ZsHzPWVQzTtnvAwvFvp-51" value="" style="endArrow=none;dashed=1;html=1;fontSize=18;entryX=0;entryY=1;entryDx=0;entryDy=0;" edge="1" parent="1" target="0ZsHzPWVQzTtnvAwvFvp-57">
          <mxGeometry width="50" height="50" relative="1" as="geometry">
            <mxPoint x="970" y="200" as="sourcePoint" />
            <mxPoint x="1010" y="230" as="targetPoint" />
          </mxGeometry>
        </mxCell>
        <mxCell id="0ZsHzPWVQzTtnvAwvFvp-52" value="1*1(63*63)" style="text;html=1;strokeColor=none;fillColor=none;align=center;verticalAlign=middle;whiteSpace=wrap;rounded=0;fontSize=18;" vertex="1" parent="1">
          <mxGeometry x="930" y="220" width="40" height="20" as="geometry" />
        </mxCell>
        <mxCell id="0ZsHzPWVQzTtnvAwvFvp-53" value="" style="shape=image;imageAspect=0;aspect=fixed;verticalLabelPosition=bottom;verticalAlign=top;fontSize=13;image=https://raw.githubusercontent.com/Purerli/STPLC/main/20210805/image.6o2sj1ejkpc0.png;" vertex="1" parent="1">
          <mxGeometry x="NaN" y="NaN" width="70" height="NaN" as="geometry" />
        </mxCell>
        <mxCell id="0ZsHzPWVQzTtnvAwvFvp-54" value="" style="shape=image;imageAspect=0;aspect=fixed;verticalLabelPosition=bottom;verticalAlign=top;fontSize=13;image=https://cdn.jsdelivr.net/gh/Purerli/STPLC@main/20210805/image.21zrgighjq3k.png;" vertex="1" parent="1">
          <mxGeometry x="30" y="270" width="210" height="135.29" as="geometry" />
        </mxCell>
        <mxCell id="0ZsHzPWVQzTtnvAwvFvp-55" value="" style="shape=image;imageAspect=0;aspect=fixed;verticalLabelPosition=bottom;verticalAlign=top;fontSize=13;image=https://cdn.jsdelivr.net/gh/Purerli/STPLC@main/20210805/image.6o2sj1ejkpc0.png;" vertex="1" parent="1">
          <mxGeometry x="70" y="127.16" width="150" height="115.67" as="geometry" />
        </mxCell>
        <mxCell id="0ZsHzPWVQzTtnvAwvFvp-57" value="" style="shape=image;verticalLabelPosition=bottom;labelBackgroundColor=#ffffff;verticalAlign=top;aspect=fixed;imageAspect=0;image=https://cdn.jsdelivr.net/gh/Purerli/STPLC@main/20210805/image.1dhmgcmzcqo0.png;" vertex="1" parent="1">
          <mxGeometry x="1010" y="150" width="120" height="90.93" as="geometry" />
        </mxCell>
      </root>
    </mxGraphModel>
  </diagram>
</mxfile>
